<?xml version="1.0" encoding="UTF-8" standalone="no"?><!-- Generator: Gravit.io --><svg xmlns="http://www.w3.org/2000/svg" xmlns:xlink="http://www.w3.org/1999/xlink" style="isolation:isolate" viewBox="0 0 41 41" width="41pt" height="41pt"><defs><clipPath id="_clipPath_F9aNPSmHUeFe4STycsNe8Z7FDPEZik7c"><rect width="41" height="41"/></clipPath></defs><g clip-path="url(#_clipPath_F9aNPSmHUeFe4STycsNe8Z7FDPEZik7c)"><g><path d="M 6.308 0 L 34.692 0 C 38.174 0 41 2.826 41 6.308 L 41 34.692 C 41 38.174 38.174 41 34.692 41 L 6.308 41 C 2.826 41 0 38.174 0 34.692 L 0 6.308 C 0 2.826 2.826 0 6.308 0 Z" style="stroke:none;fill:#F1671F;stroke-miterlimit:10;"/><path d=" M 8.21 25.3 C 7.434 23.636 7 21.774 7 19.81 C 7 12.741 12.628 7 19.558 7 C 19.943 7 20.324 7.018 20.7 7.052 L 19.558 19.81 L 8.21 25.3 Z " fill="rgb(255,255,255)"/><path d=" M 22.205 8.1 C 28.814 8.697 34 14.259 34 21.023 C 34 28.185 28.186 34 21.025 34 C 15.853 34 11.384 30.967 9.3 26.584 L 21.025 21.023 L 22.205 8.1 Z " fill="rgb(255,255,255)"/></g></g></svg>