<?xml version="1.0" encoding="UTF-8" standalone="no"?><!-- Generator: Gravit.io --><svg xmlns="http://www.w3.org/2000/svg" xmlns:xlink="http://www.w3.org/1999/xlink" style="isolation:isolate" viewBox="0 0 41 41" width="41pt" height="41pt"><defs><clipPath id="_clipPath_Fl76nbxGoHN7ZV40sJC3tPOPGoN3LR5L"><rect width="41" height="41"/></clipPath></defs><g clip-path="url(#_clipPath_Fl76nbxGoHN7ZV40sJC3tPOPGoN3LR5L)"><g><path d="M 6.308 0 L 34.692 0 C 38.174 0 41 2.826 41 6.308 L 41 34.692 C 41 38.174 38.174 41 34.692 41 L 6.308 41 C 2.826 41 0 38.174 0 34.692 L 0 6.308 C 0 2.826 2.826 0 6.308 0 Z" style="stroke:none;fill:#257BA8;stroke-miterlimit:10;"/><g><rect x="7" y="12" width="27" height="2" transform="matrix(1,0,0,1,0,0)" fill="rgb(255,255,255)"/><rect x="7" y="17" width="27" height="2" transform="matrix(1,0,0,1,0,0)" fill="rgb(255,255,255)"/><rect x="7" y="22" width="27" height="2" transform="matrix(1,0,0,1,0,0)" fill="rgb(255,255,255)"/><rect x="7" y="27" width="27" height="2" transform="matrix(1,0,0,1,0,0)" fill="rgb(255,255,255)"/></g></g></g></svg>